<svg t="1773300320168" class="icon" viewBox="0 0 1024 1024" version="1.1" xmlns="http://www.w3.org/2000/svg" p-id="2875" width="200" height="200"><path d="M516.096 903.68c-45.568 0-81.408-47.104-116.736-152.576-23.04-70.144-40.448-149.504-48.64-190.464-4.608-22.016-3.584-44.544 3.072-66.048 46.592-157.696 100.864-237.568 162.304-237.568s115.712 79.872 162.304 237.568c6.144 21.504 7.168 44.544 3.072 66.048-8.192 40.96-25.6 120.32-48.64 190.464-34.816 105.984-70.656 152.576-116.736 152.576z m0-574.976c-12.288 1.024-53.248 49.152-93.696 186.368-3.072 10.24-3.584 21.504-1.536 31.744 35.84 180.224 75.776 266.24 95.232 283.136 19.456-16.896 58.88-103.424 95.232-283.136 2.048-10.24 1.536-21.504-1.536-31.744-40.448-137.216-80.896-185.344-93.696-186.368z" p-id="2876" fill="#707070"></path><path d="M681.984 1021.44H350.72c-19.968 0-35.84-15.872-35.84-35.84 0-86.016 88.576-153.088 201.216-153.088s201.216 67.072 201.216 153.088c0.512 19.456-15.872 35.84-35.328 35.84z m-281.6-71.68h231.936c-21.504-26.624-66.048-45.568-116.224-45.568s-94.208 18.432-115.712 45.568zM835.584 321.024c-94.72 0-172.032-77.312-172.032-172.032 0-43.52 16.384-85.504 46.08-117.248 12.288-12.8 31.744-14.848 46.08-5.12L829.44 76.8l57.344-62.976c12.288-13.312 32.256-15.36 47.104-5.12 45.568 32.256 72.704 84.992 72.704 140.8 0.512 94.72-76.288 171.52-171.008 171.52z m-90.624-215.04c-6.656 13.312-9.728 28.16-9.728 43.52 0 55.296 45.056 100.352 100.352 100.352s100.352-45.056 100.352-100.352c0-22.016-7.168-43.008-19.968-59.904L862.208 148.48c-11.776 13.312-31.744 15.36-46.592 5.632l-70.656-48.128zM186.88 321.024c-94.72 0-172.032-76.8-172.032-171.52C14.848 93.696 42.496 40.96 88.064 8.704c14.848-10.24 34.816-8.192 47.104 5.12L192.512 76.8 266.24 26.624c14.848-9.728 34.304-7.68 46.08 5.12 29.696 31.744 46.08 73.728 46.08 117.248 0.512 95.232-76.8 172.032-171.52 172.032zM106.496 89.088c-12.8 17.408-19.968 38.4-19.968 59.904 0 55.296 45.056 100.352 100.352 100.352S287.232 204.8 287.232 149.504c0-15.36-3.584-30.208-9.728-43.52L206.848 153.6c-14.848 10.24-34.816 7.68-46.592-5.632L106.496 89.088z" p-id="2877" fill="#707070"></path><path d="M646.656 589.824c-15.36 0-29.696-9.728-34.304-25.088-5.632-18.944 4.608-38.912 23.552-45.056 87.552-27.136 141.824-72.704 161.28-135.68 14.848-47.616 4.096-89.088 3.584-89.6-5.12-18.944 6.144-38.912 25.088-44.032s38.4 5.632 44.032 24.576c0.512 2.048 60.928 227.84-212.992 312.832-3.584 1.536-7.168 2.048-10.24 2.048zM386.048 589.824c-3.584 0-7.168-0.512-10.752-1.536-273.92-84.48-213.504-310.272-212.48-312.832 5.632-18.944 25.088-30.208 44.032-24.576 18.944 5.632 30.208 25.088 24.576 44.032-0.512 1.024-10.752 41.984 3.584 89.6 19.456 62.976 73.728 108.544 161.28 135.68 18.944 5.632 29.696 26.112 23.552 45.056-4.096 14.848-18.432 24.576-33.792 24.576z" p-id="2878" fill="#707070"></path></svg>